<?xml version="1.0" encoding="UTF-8" standalone="no"?>
<!-- Creator: CorelDRAW 2019 (64-Bit) -->

<svg
   xml:space="preserve"
   width="0.25in"
   height="0.25in"
   version="1.1"
   shape-rendering="geometricPrecision"
   text-rendering="geometricPrecision"
   image-rendering="optimizeQuality"
   fill-rule="evenodd"
   clip-rule="evenodd"
   viewBox="0 0 23.999999 23.999999"
   id="svg9"
   sodipodi:docname="cryptocurrency.svg"
   inkscape:version="1.1.1 (3bf5ae0d25, 2021-09-20)"
   xmlns:inkscape="http://www.inkscape.org/namespaces/inkscape"
   xmlns:sodipodi="http://sodipodi.sourceforge.net/DTD/sodipodi-0.dtd"
   xmlns="http://www.w3.org/2000/svg"
   xmlns:svg="http://www.w3.org/2000/svg"><defs
   id="defs13"><inkscape:path-effect
   effect="powermask"
   id="path-effect854"
   is_visible="true"
   lpeversion="1"
   uri="#mask-powermask-path-effect854"
   invert="false"
   hide_mask="false"
   background="true"
   background_color="#ffffffff" />
   
   
  <mask
   maskUnits="userSpaceOnUse"
   id="mask-powermask-path-effect854"><path
     id="mask-powermask-path-effect854_box"
     style="fill:#ffffff;fill-opacity:1"
     d="M -0.52000664,-0.51999786 H 24.520007 V 24.519998 H -0.52000664 Z" /><path
     fill="#ffffff"
     fill-rule="nonzero"
     d="M 17.080393,10.358684 C 17.309708,8.825623 16.142409,8.0015452 14.546214,7.4518034 L 15.064031,5.3751385 13.799757,5.0601477 13.295681,7.0821368 C 12.963309,6.9992504 12.621983,6.9211502 12.282741,6.8437257 L 12.790478,4.8083915 11.526992,4.4934006 11.008893,6.5693897 C 10.73385,6.5067745 10.463707,6.4448912 10.201616,6.3796857 l 0.0015,-0.00653 -1.7434596,-0.4353225 -0.3363138,1.35017 c 0,0 0.9379843,0.2149866 0.9182177,0.2282191 0.5119606,0.1277645 0.6045426,0.4666302 0.5891686,0.7352227 l -0.5898794,2.365808 c 0.035253,0.009 0.080981,0.0219 0.1314395,0.04218 -0.04218,-0.01047 -0.087063,-0.0219 -0.1336358,-0.03305 l -0.8267619,3.314161 c -0.062566,0.155525 -0.2213747,0.388925 -0.5793135,0.300295 0.012671,0.01836 -0.9188935,-0.229289 -0.9188935,-0.229289 l -0.6276881,1.447021 1.6452457,0.410096 c 0.3060725,0.07675 0.6060068,0.157045 0.9013795,0.232555 l -0.5231673,2.100483 1.2628098,0.314991 0.5180989,-2.078185 c 0.3449862,0.09364 0.6797792,0.180019 1.0075332,0.261441 l -0.516353,2.068388 1.26433,0.314991 0.523111,-2.096542 c 2.155855,0.407956 3.776885,0.243479 4.459199,-1.706266 0.549804,-1.569774 -0.02737,-2.475218 -1.161555,-3.065671 0.826086,-0.190493 1.448311,-0.733759 1.614216,-1.855991 l -3.94e-4,-2.82e-4 z m -2.88857,4.050059 c -0.390714,1.569774 -3.034033,0.721202 -3.891036,0.508412 l 0.694253,-2.782776 c 0.856947,0.213916 3.605124,0.637245 3.196839,2.274364 z m 0.390996,-4.072808 c -0.356419,1.427876 -2.556481,0.702451 -3.270162,0.524572 l 0.629434,-2.5238124 c 0.713681,0.1778792 3.012013,0.5098753 2.64084,1.9992404 z"
     id="path852"
     style="fill:#000000;stroke-width:0.00563119" /></mask><filter
   id="mask-powermask-path-effect854_inverse"
   inkscape:label="filtermask-powermask-path-effect854"
   style="color-interpolation-filters:sRGB"
   height="100"
   width="100"
   x="-50"
   y="-50"><feColorMatrix
     id="mask-powermask-path-effect854_primitive1"
     values="1"
     type="saturate"
     result="fbSourceGraphic" /><feColorMatrix
     id="mask-powermask-path-effect854_primitive2"
     values="-1 0 0 0 1 0 -1 0 0 1 0 0 -1 0 1 0 0 0 1 0 "
     in="fbSourceGraphic" /></filter></defs><sodipodi:namedview
   id="namedview11"
   pagecolor="#505050"
   bordercolor="#eeeeee"
   borderopacity="1"
   inkscape:pageshadow="0"
   inkscape:pageopacity="0"
   inkscape:pagecheckerboard="0"
   showgrid="false"
   units="in"
   inkscape:zoom="22.492198"
   inkscape:cx="7.0468881"
   inkscape:cy="15.405342"
   inkscape:window-width="1920"
   inkscape:window-height="1191"
   inkscape:window-x="2645"
   inkscape:window-y="1791"
   inkscape:window-maximized="1"
   inkscape:current-layer="Layer_x0020_1"
   inkscape:document-units="in" />
 <g
   id="Layer_x0020_1"
   inkscape:label="Layer 1"
   inkscape:groupmode="layer">
  <metadata
   id="CorelCorpID_0Corel-Layer" />
  <path
   fill="#f7931a"
   fill-rule="nonzero"
   d="M 23.17532,14.786744 C 21.636566,20.958233 15.38514,24.71408 9.2122164,23.175107 3.0418835,21.636528 -0.71438999,15.385418 0.82503959,9.2144346 2.3631176,3.0422691 8.6145442,-0.71385906 14.785553,0.82471986 20.958026,2.3632988 24.714074,8.6150848 23.175151,14.786856 l 1.13e-4,-1.12e-4 z"
   id="path3"
   style="stroke-width:0.00563119"
   mask="url(#mask-powermask-path-effect854)"
   inkscape:path-effect="#path-effect854"
   inkscape:original-d="M 23.17532,14.786744 C 21.636566,20.958233 15.38514,24.71408 9.2122164,23.175107 3.0418835,21.636528 -0.71438999,15.385418 0.82503959,9.2144346 2.3631176,3.0422691 8.6145442,-0.71385906 14.785553,0.82471986 20.958026,2.3632988 24.714074,8.6150848 23.175151,14.786856 l 1.13e-4,-1.12e-4 z" />
 </g>
</svg>
